# xmcd CD database file
#
# Track frame offsets:
#	150
#	24502
#	37824
#	63032
#
# Disc length: 850 seconds
#
# Revision: 0
# Processed by: cddbd v1.5PL3 Copyright (c) Steve Scherf et al.
# Submitted via: CDex 1.51
#
DISCID=22035004
DTITLE=ナポレナポレ - BIGHOPPER
DYEAR=1900
DGENRE=Pop
TTITLE0=BIGHOPPER
TTITLE1=甲斐塾のテーマ
TTITLE2=ここ
TTITLE3=no title
EXTD=
EXTT0=
EXTT1=
EXTT2=
EXTT3=
PLAYORDER=
